<svg width="29" height="32" viewBox="0 0 29 32" fill="none" xmlns="http://www.w3.org/2000/svg">
<g clip-path="url(#clip0_2_173)">
<path d="M14.0403 0.815717C6.60001 0.92154 0.646807 7.62343 0.743278 15.785C0.839749 23.9466 6.94936 30.477 14.3897 30.3711C21.83 30.2653 27.7832 23.5634 27.6867 15.4018C27.5903 7.24021 21.4807 0.709893 14.0403 0.815717ZM17.3522 10.9823L15.3272 11.0111C15.0872 11.0146 14.8247 11.3647 14.8301 11.825L14.8491 13.429L17.3821 13.3929L17.026 15.6859L14.8761 15.7164L14.9573 22.5834L12.5675 22.6174L12.4863 15.7504L10.3182 15.7813L10.2912 13.4938L12.4593 13.463L12.4434 12.1176C12.4205 10.1872 13.6229 8.60127 15.2984 8.57744L17.3234 8.54864L17.3522 10.9823Z" fill="black" fill-opacity="0.89"/>
</g>
<defs>
<clipPath id="clip0_2_173">
<rect width="28.0689" height="30.789" fill="white" transform="matrix(0.999899 -0.0142215 0.0118193 0.99993 0 0.399414)"/>
</clipPath>
</defs>
</svg>
