<svg width="60" height="60" viewBox="0 0 60 60" fill="none" xmlns="http://www.w3.org/2000/svg">
<path d="M12 6C12 9.31371 9.31371 12 6 12C2.68629 12 0 9.31371 0 6C0 2.68629 2.68629 0 6 0C9.31371 0 12 2.68629 12 6Z" fill="#224F34"/>
<path d="M12 6C12 9.31371 9.31371 12 6 12C2.68629 12 0 9.31371 0 6C0 2.68629 2.68629 0 6 0C9.31371 0 12 2.68629 12 6Z" fill="#224F34"/>
<path d="M12 30C12 33.3137 9.31371 36 6 36C2.68629 36 0 33.3137 0 30C0 26.6863 2.68629 24 6 24C9.31371 24 12 26.6863 12 30Z" fill="#224F34"/>
<path d="M12 30C12 33.3137 9.31371 36 6 36C2.68629 36 0 33.3137 0 30C0 26.6863 2.68629 24 6 24C9.31371 24 12 26.6863 12 30Z" fill="#224F34"/>
<path d="M12 54C12 57.3137 9.31371 60 6 60C2.68629 60 0 57.3137 0 54C0 50.6863 2.68629 48 6 48C9.31371 48 12 50.6863 12 54Z" fill="#224F34"/>
<path d="M12 54C12 57.3137 9.31371 60 6 60C2.68629 60 0 57.3137 0 54C0 50.6863 2.68629 48 6 48C9.31371 48 12 50.6863 12 54Z" fill="#224F34"/>
<circle cx="30" cy="6" r="6" fill="#224F34"/>
<circle cx="30" cy="30" r="6" fill="#224F34"/>
<circle cx="30" cy="54" r="6" fill="#224F34"/>
<circle cx="54" cy="6" r="6" fill="#224F34"/>
<circle cx="54" cy="30" r="6" fill="#224F34"/>
<circle cx="54" cy="54" r="6" fill="#224F34"/>
</svg>
