<svg width="30" height="31" viewBox="0 0 30 31" fill="none" xmlns="http://www.w3.org/2000/svg">
<path d="M9.375 7.0937C9.375 5.58819 9.96763 4.14435 11.0225 3.07979C12.0774 2.01524 13.5082 1.41718 15 1.41718C16.4918 1.41718 17.9226 2.01524 18.9775 3.07979C20.0324 4.14435 20.625 5.58819 20.625 7.0937V8.98588H26.25V29.1691H3.75V8.98588H9.375V7.0937ZM9.375 11.5088H6.25V26.6462H23.75V11.5088H20.625V15.2931H18.125V11.5088H11.875V15.2931H9.375V11.5088ZM18.125 8.98588V7.0937C18.125 6.25731 17.7958 5.45517 17.2097 4.86375C16.6237 4.27233 15.8288 3.94008 15 3.94008C14.1712 3.94008 13.3763 4.27233 12.7903 4.86375C12.2042 5.45517 11.875 6.25731 11.875 7.0937V8.98588H18.125Z" fill="black"/>
</svg>
