<svg width="29" height="31" viewBox="0 0 29 31" fill="none" xmlns="http://www.w3.org/2000/svg">
<path d="M25.7778 0H3.22222C1.45 0 0 1.55 0 3.44444V27.5556C0 29.4517 1.45 31 3.22222 31H25.7778C27.55 31 29 29.4517 29 27.5556V3.44444C29 1.55 27.55 0 25.7778 0ZM14.4742 25.0118C16.8407 25.0114 19.1101 24.0061 20.7834 22.2172C22.4566 20.4283 23.3966 18.0021 23.3966 15.4724C23.3966 14.8903 23.3273 14.3289 23.2306 13.7778H25.7778V26.2053C25.7778 26.3618 25.7489 26.5168 25.6927 26.6613C25.6365 26.8058 25.5542 26.937 25.4505 27.0474C25.3467 27.1579 25.2236 27.2453 25.0882 27.3047C24.9527 27.3641 24.8077 27.3943 24.6613 27.3937H4.33872C4.19233 27.3943 4.04725 27.3641 3.91182 27.3047C3.77639 27.2453 3.65327 27.1579 3.54953 27.0474C3.44579 26.937 3.36347 26.8058 3.3073 26.6613C3.25113 26.5168 3.22222 26.3618 3.22222 26.2053V13.7778H5.71783C5.61956 14.3289 5.55028 14.8903 5.55028 15.4724C5.55071 18.0023 6.49104 20.4284 8.16451 22.2173C9.83798 24.0062 12.1076 25.0114 14.4742 25.0118ZM8.89817 15.4724C8.89817 14.6897 9.0424 13.9146 9.32262 13.1914C9.60284 12.4682 10.0136 11.8111 10.5314 11.2577C11.0491 10.7042 11.6638 10.2651 12.3404 9.96556C13.0169 9.66601 13.742 9.51183 14.4742 9.51183C15.2065 9.51183 15.9316 9.66601 16.6081 9.96556C17.2846 10.2651 17.8993 10.7042 18.4171 11.2577C18.9349 11.8111 19.3456 12.4682 19.6258 13.1914C19.906 13.9146 20.0503 14.6897 20.0503 15.4724C20.0503 17.0533 19.4628 18.5694 18.4171 19.6872C17.3714 20.8051 15.9531 21.4331 14.4742 21.4331C12.9954 21.4331 11.5771 20.8051 10.5314 19.6872C9.48564 18.5694 8.89817 17.0533 8.89817 15.4724ZM24.6613 8.61111H22.0593C21.7639 8.6102 21.4808 8.48435 21.2719 8.26104C21.063 8.03774 20.9453 7.73513 20.9444 7.41933V4.6345C20.9444 3.97661 21.4439 3.44444 22.0577 3.44444H24.6597C25.2783 3.44444 25.7778 3.97661 25.7778 4.6345V7.41761C25.7778 8.07378 25.2783 8.61111 24.6613 8.61111Z" fill="black" fill-opacity="0.89"/>
</svg>
